<?xml version="1.0" encoding="UTF-8"?>
<svg width="70px" height="62px" viewBox="0 0 70 62" version="1.1" xmlns="http://www.w3.org/2000/svg" xmlns:xlink="http://www.w3.org/1999/xlink">
    <title>Logo / </title>
    <desc>Created with Sketch.</desc>
    <g id="Logo-/-" stroke="none" stroke-width="1" fill="none" fill-rule="evenodd">
        <g id="Logo-/-Icon" transform="translate(-0.000170, 4.635600)" fill="#E03B4F">
            <path d="M34.6575703,44.3745 C29.2725703,44.3745 24.9075703,40.0095 24.9075703,34.6245 C24.9075703,29.2395 29.2725703,24.8745 34.6575703,24.8745 C40.0425703,24.8745 44.4085703,29.2395 44.4085703,34.6245 C44.4085703,40.0095 40.0425703,44.3745 34.6575703,44.3745 Z M57.5418703,54.127 C56.2688703,54.127 54.9738703,53.876 53.7298703,53.346 C48.7748703,51.238 46.4668703,45.512 48.5758703,40.556 C51.0098703,34.834 49.7498703,28.304 45.3618703,23.916 C39.4608703,18.012 29.8528703,18.015 23.9518703,23.917 C19.5658703,28.304 18.3038703,34.834 20.7398703,40.556 C22.8478703,45.512 20.5408703,51.238 15.5858703,53.346 C10.6288703,55.454 4.90287026,53.148 2.79587026,48.193 C-2.77012974,35.111 0.120870256,20.17 10.1628703,10.128 C23.6698703,-3.37499999 45.6468703,-3.37699999 59.1508703,10.128 C69.1948703,20.171 72.0858703,35.111 66.5178703,48.193 C64.9408703,51.902 61.3348703,54.127 57.5418703,54.127 Z" id="Combined-Shape"></path>
        </g>
    </g>
</svg>